<svg xmlns="http://www.w3.org/2000/svg" viewBox="0 0 100 100">
  <g transform="translate(10, 15)"> <!-- Centering adjustment -->

    <!-- Dump Bed (Back) -->
    <!-- Main container -->
    <path d="M35 15 L75 15 L80 45 L35 45 Z" fill="#F39C12" stroke="#D35400" stroke-width="2" stroke-linejoin="round"/>
    <!-- Ribs for detail -->
    <path d="M50 15 L52 45" stroke="#E67E22" stroke-width="2" />
    <path d="M65 15 L63 45" stroke="#E67E22" stroke-width="2" />
    <!-- Top Rim -->
    <rect x="33" y="13" width="44" height="4" rx="1" fill="#E67E22" />

    <!-- Cab (Front) -->
    <!-- Main Body -->
    <path d="M5 45 L5 25 Q5 15 15 15 L35 15 L35 45 L5 45 Z" fill="#F1C40F" stroke="#F39C12" stroke-width="2"/>
    <!-- Window -->
    <path d="M12 20 L28 20 L28 32 L12 32 Z" fill="#D6EAF8" stroke="#AED6F1" stroke-width="1" />

    <!-- Chassis/Frame -->
    <rect x="5" y="45" width="75" height="6" fill="#5D6D7E" />

    <!-- Wheels -->
    <!-- Back -->
    <circle cx="60" cy="52" r="11" fill="#2C3E50" />
    <circle cx="60" cy="52" r="5" fill="#95A5A6" />

    <!-- Front -->
    <circle cx="20" cy="52" r="11" fill="#2C3E50" />
    <circle cx="20" cy="52" r="5" fill="#95A5A6" />

    <!-- Bumper -->
    <rect x="3" y="45" width="3" height="8" fill="#95A5A6" />

    <!-- Light -->
    <circle cx="6" cy="40" r="2" fill="#FAD7A0" />
  </g>
</svg>
