<?xml version="1.0" standalone="no"?>
<!DOCTYPE svg PUBLIC "-//W3C//DTD SVG 20010904//EN"
 "http://www.w3.org/TR/2001/REC-SVG-20010904/DTD/svg10.dtd">
<svg version="1.0" xmlns="http://www.w3.org/2000/svg"
 width="768.000000pt" height="768.000000pt" viewBox="0 0 256.000000 256.000000"
 preserveAspectRatio="xMidYMid meet">

<g transform="translate(0.000000,200.000000) scale(0.100000,-0.100000)"
fill="#000000" stroke="none">
<path d="M1194 1776 c-4 -10 10 -50 35 -97 64 -125 58 -163 -60 -361 -38 -65
-69 -127 -67 -136 2 -9 70 -56 154 -106 l151 -89 6 -56 c3 -31 2 -117 -3 -191
-5 -74 -9 -141 -10 -147 0 -7 -12 -13 -28 -13 -15 0 -33 -5 -38 -10 -7 -7 -74
-9 -180 -8 l-169 3 -3 75 c-3 106 -8 119 -47 136 l-34 14 -3 97 -3 98 -41 3
c-37 3 -42 6 -48 32 -4 21 -13 31 -33 36 -38 10 -386 -13 -417 -27 -26 -12
-29 -18 -96 -244 -5 -16 -11 -122 -12 -235 l-3 -205 111 -3 111 -3 12 60 c9
48 19 66 46 90 38 33 88 46 143 37 71 -11 122 -74 122 -150 l0 -39 54 6 c41 4
58 2 67 -9 17 -21 412 -20 433 2 8 7 25 14 38 14 19 0 31 15 63 78 l40 77 100
0 99 0 30 -44 c33 -49 26 -51 79 24 18 25 21 26 115 23 l97 -3 35 -64 c37 -68
49 -76 65 -42 6 14 19 21 37 21 16 0 28 5 28 10 0 6 -7 10 -15 10 -10 0 -15
10 -15 30 0 20 5 30 15 30 8 0 15 9 15 20 0 16 -7 20 -30 20 -21 0 -30 5 -30
16 0 10 5 14 15 10 8 -3 21 -8 29 -12 16 -6 213 303 200 316 -5 5 -223 131
-484 281 -261 149 -481 277 -488 284 -11 10 -8 30 13 114 14 56 23 106 21 110
-6 10 -176 118 -199 127 -11 4 -19 0 -23 -10z m-677 -868 c-3 -29 -12 -70 -21
-90 -9 -21 -16 -42 -16 -47 0 -13 -8 -17 -47 -26 -30 -6 -33 -4 -33 18 0 33
10 40 32 20 10 -9 21 -13 25 -9 4 4 -14 28 -40 54 -33 33 -47 42 -47 29 0 -9
5 -17 10 -17 6 0 10 -7 10 -16 0 -9 -3 -14 -7 -12 -5 3 -22 11 -39 18 l-31 13
15 59 14 58 90 0 89 0 -4 -52z m169 37 c3 -8 -2 -32 -13 -54 -16 -36 -22 -41
-54 -41 -42 0 -49 11 -49 71 l0 39 55 0 c40 0 57 -4 61 -15z m1084 -170 c129
-76 239 -141 243 -145 18 -16 -27 -50 -65 -50 -20 0 -40 -4 -43 -10 -8 -13
-357 -13 -370 -1 -6 5 -23 11 -40 13 l-30 3 -9 158 c-7 124 -6 164 4 183 13
24 13 24 44 5 17 -10 137 -80 266 -156z m-780 -300 c0 -9 -9 -15 -25 -15 -24
0 -32 10 -18 23 12 13 43 7 43 -8z m260 0 c0 -13 -21 -15 -125 -15 -104 0
-125 2 -125 15 0 13 21 15 125 15 104 0 125 -2 125 -15z m64 0 c4 -11 -1 -15
-19 -15 -25 0 -39 12 -28 24 12 11 41 6 47 -9z m-906 -12 c-15 -2 -42 -2 -60
0 -18 2 -6 4 27 4 33 0 48 -2 33 -4z m0 -20 c-15 -2 -42 -2 -60 0 -18 2 -6 4
27 4 33 0 48 -2 33 -4z m580 -25 c-2 -25 -8 -34 -25 -36 -20 -3 -23 1 -23 32
0 32 3 36 26 36 23 0 25 -3 22 -32z m262 -3 l0 -36 -122 3 c-109 3 -123 5
-126 21 -9 43 1 47 128 47 l120 0 0 -35z m65 0 c0 -25 -4 -30 -24 -30 -19 0
-25 6 -26 25 -3 34 3 42 28 38 17 -2 22 -10 22 -33z m-907 8 c-15 -2 -42 -2
-60 0 -18 2 -6 4 27 4 33 0 48 -2 33 -4z m582 -69 c0 -10 -7 -14 -22 -12 -32
5 -35 28 -4 28 17 0 26 -5 26 -16z m260 1 c0 -13 -21 -15 -125 -15 -104 0
-125 2 -125 15 0 13 21 15 125 15 104 0 125 -2 125 -15z m64 0 c-7 -16 -39
-21 -48 -6 -8 12 4 21 30 21 17 0 22 -4 18 -15z"/>
<path d="M565 491 c-49 -30 -68 -58 -73 -109 -5 -56 22 -126 40 -101 7 10 8 8
3 -7 -6 -23 17 -40 37 -27 6 3 8 1 5 -4 -16 -25 65 -31 117 -9 38 16 71 57 80
102 8 38 -2 86 -17 77 -6 -3 -7 -1 -3 6 11 18 -18 56 -57 75 -46 21 -95 20
-132 -3z m129 -71 c31 -30 27 -87 -8 -116 -30 -26 -56 -30 -89 -12 -57 30 -64
92 -15 133 36 31 79 29 112 -5z"/>
<path d="M598 424 c-54 -29 -45 -107 16 -127 22 -7 33 -5 55 10 71 53 7 159
-71 117z m72 -24 c11 -11 20 -27 20 -35 0 -20 -36 -55 -57 -55 -23 0 -53 30
-53 53 0 26 28 57 52 57 10 0 27 -9 38 -20z"/>
<path d="M601 381 c-13 -24 8 -55 34 -50 28 6 42 34 26 53 -18 22 -48 20 -60
-3z m39 -21 c0 -5 -2 -10 -4 -10 -3 0 -8 5 -11 10 -3 6 -1 10 4 10 6 0 11 -4
11 -10z"/>
<path d="M1520 482 c-102 -51 -106 -192 -8 -252 77 -46 181 -8 209 77 13 40 4
107 -13 97 -7 -4 -8 -2 -4 5 19 31 -61 91 -121 91 -15 0 -44 -8 -63 -18z m124
-72 c31 -30 27 -87 -8 -116 -42 -37 -103 -26 -125 23 -18 39 -13 63 19 95 26
25 36 29 63 24 18 -4 41 -15 51 -26z m46 -140 c0 -5 -2 -10 -4 -10 -3 0 -8 5
-11 10 -3 6 -1 10 4 10 6 0 11 -4 11 -10z"/>
<path d="M1553 417 c-27 -12 -47 -58 -38 -87 24 -75 135 -55 135 24 0 51 -51
84 -97 63z m67 -27 c24 -24 25 -38 4 -68 -18 -26 -50 -28 -76 -5 -22 20 -23
51 -1 75 21 24 48 23 73 -2z"/>
<path d="M1557 383 c-11 -10 -8 -51 4 -58 18 -12 59 4 59 23 0 32 -43 56 -63
35z m33 -33 c0 -5 -2 -10 -4 -10 -3 0 -8 5 -11 10 -3 6 -1 10 4 10 6 0 11 -4
11 -10z"/>
<path d="M1852 489 c-13 -5 -21 -13 -17 -19 3 -5 0 -7 -8 -4 -8 3 -20 -2 -27
-11 -12 -14 -11 -18 1 -27 11 -8 10 -9 -4 -4 -38 12 -50 -88 -17 -142 77 -125
270 -73 270 74 0 47 -37 110 -63 108 -9 -1 -14 2 -11 7 14 23 -80 36 -124 18z
m109 -78 c17 -18 29 -40 29 -56 0 -35 -50 -85 -85 -85 -16 0 -38 12 -57 30
-25 26 -29 36 -24 62 7 36 22 57 51 68 36 15 56 11 86 -19z"/>
<path d="M1879 416 c-35 -17 -52 -58 -38 -90 25 -55 109 -55 130 1 22 58 -38
116 -92 89z m59 -22 c26 -18 28 -50 5 -76 -22 -25 -59 -23 -77 4 -21 30 -20
44 4 68 24 24 38 25 68 4z"/>
<path d="M1881 376 c-21 -26 -9 -51 24 -51 27 0 30 3 30 30 0 23 -5 31 -21 33
-11 2 -26 -4 -33 -12z m39 -20 c0 -3 -4 -8 -10 -11 -5 -3 -10 -1 -10 4 0 6 5
11 10 11 6 0 10 -2 10 -4z"/>
</g>
</svg>
